<?xml version="1.0" encoding="UTF-8"?>
<svg version="1.1" xmlns="http://www.w3.org/2000/svg" width="4096" height="4096">
<path d="M0 0 C3.84399087 0.00194756 7.68797697 -0.00197574 11.53196646 -0.00509679 C18.27660339 -0.00978136 25.021233 -0.01080274 31.76587129 -0.00936845 C41.86285126 -0.00723711 51.9598237 -0.01087496 62.0568025 -0.01558322 C79.26937951 -0.02343675 96.48195445 -0.02654426 113.69453312 -0.02702915 C131.13037602 -0.02753216 148.56621661 -0.0301854 166.00205875 -0.03543675 C167.10454412 -0.03576688 168.20702949 -0.03609701 169.3429235 -0.03643715 C173.83339365 -0.0377872 178.32386379 -0.03914987 182.81433392 -0.04052926 C235.92316531 -0.05681426 289.03199626 -0.0632152 342.14082972 -0.06797713 C368.58579787 -0.07036162 395.03076577 -0.07406529 421.47573373 -0.07801422 C506.99033648 -0.09077653 592.50493921 -0.10152145 678.01954288 -0.10493553 C681.39752906 -0.10507111 684.77551524 -0.10521013 688.15350143 -0.10534907 C693.56909365 -0.10557154 698.98468587 -0.10579291 704.40027808 -0.10601295 C705.07134979 -0.10604022 705.7424215 -0.10606749 706.43382872 -0.10609559 C707.79011039 -0.1061507 709.14639207 -0.10620581 710.50267375 -0.10626092 C720.01635581 -0.10664752 729.53003786 -0.10703547 739.04371992 -0.10743005 C742.44787358 -0.10757116 745.85202724 -0.10771123 749.2561809 -0.10784894 C813.55719166 -0.11045347 877.85820002 -0.11578722 942.15920902 -0.13173115 C943.17481939 -0.13198284 943.17481939 -0.13198284 944.21094715 -0.13223962 C965.36671549 -0.13749055 986.52248375 -0.14306483 1007.67825199 -0.14869892 C1029.38668702 -0.15448006 1051.09512205 -0.16021068 1072.80355716 -0.16565525 C1073.47200234 -0.16582306 1074.14044751 -0.16599087 1074.8291486 -0.16616376 C1116.69980895 -0.17665858 1158.57046875 -0.18351334 1200.44113041 -0.18652165 C1201.73443657 -0.18661513 1203.02774274 -0.18670862 1204.36024 -0.18680494 C1232.75079364 -0.18882394 1261.14134726 -0.18998002 1289.53190096 -0.19033352 C1299.69029344 -0.1904697 1309.84868592 -0.19067869 1320.0070784 -0.19092678 C1322.53420464 -0.19098834 1325.06133089 -0.19104666 1327.58845713 -0.19110173 C1367.85411419 -0.19202148 1408.11976267 -0.20198871 1448.3854169 -0.21655921 C1488.93506657 -0.23117382 1529.48470572 -0.23621776 1570.03435756 -0.22813967 C1575.63844926 -0.22702431 1581.24254099 -0.22601364 1586.84663273 -0.22506535 C1588.49444198 -0.2247804 1588.49444198 -0.2247804 1590.17554031 -0.22448969 C1607.56375083 -0.22175696 1624.9519419 -0.22909503 1642.3401482 -0.24063872 C1659.44146495 -0.25178218 1676.54275421 -0.25220808 1693.64407139 -0.24126853 C1703.66688983 -0.23517728 1713.68962528 -0.23725305 1723.71243588 -0.2515205 C1730.37612281 -0.26018248 1737.0397489 -0.25788171 1743.70343211 -0.24682179 C1747.47619662 -0.24086236 1751.24879891 -0.23939735 1755.02155239 -0.25150665 C1796.22328573 -0.37496625 1832.6564646 6.64424155 1863.42434574 36.13255108 C1864.69278324 37.33911358 1864.69278324 37.33911358 1865.98684574 38.57005108 C1866.79122074 39.41567608 1867.59559574 40.26130108 1868.42434574 41.13255108 C1869.07790043 41.80286358 1869.73145511 42.47317608 1870.40481449 43.16380108 C1894.70459964 68.9274287 1904.49167048 103.49710451 1903.56057621 138.28880108 C1902.16878625 167.34179297 1890.03131636 194.13549057 1871.42434574 216.13255108 C1870.87391605 216.81704326 1870.32348636 217.50153545 1869.75637699 218.20676983 C1864.96837865 223.99558493 1859.36389102 228.56367009 1853.42434574 233.13255108 C1852.67797855 233.71778545 1851.93161136 234.30301983 1851.16262699 234.90598858 C1826.99490686 252.87361296 1798.33252873 260.31585549 1768.57789702 260.2597096 C1766.67355138 260.26210933 1766.67355138 260.26210933 1764.73073412 260.26455754 C1761.21068987 260.26885234 1757.69067228 260.26695857 1754.17062762 260.264044 C1750.32530099 260.26197204 1746.4799792 260.26572465 1742.63465378 260.26872552 C1735.87049755 260.27320535 1729.10634871 260.2739793 1722.34219131 260.27235274 C1712.21570075 260.26994176 1702.08921777 260.27332927 1691.96272823 260.27786967 C1674.70388783 260.28544765 1657.44504947 260.28835568 1640.18620754 260.28875721 C1622.69252299 260.28919097 1605.19884081 260.29182842 1587.70515705 260.29718006 C1586.60074144 260.29751725 1585.49632582 260.29785444 1584.35844307 260.29820185 C1578.72705449 260.29993447 1573.09566592 260.30170926 1567.46427735 260.30350401 C1555.91780337 260.30717164 1544.37132931 260.31054664 1532.82485522 260.31382382 C1531.66189789 260.31415425 1530.49894057 260.31448468 1529.30074211 260.31482512 C1503.74465478 260.32201426 1478.18856712 260.32634299 1452.63247916 260.33054215 C1393.14701629 260.34033479 1333.66155883 260.35887268 1274.17609926 260.38067412 C1250.82964025 260.38922514 1227.48318113 260.39749603 1204.13672203 260.40579121 C1200.20353526 260.40718939 1196.2703485 260.40859021 1192.33716173 260.40999135 C1131.86162501 260.43151809 1071.3860877 260.45095782 1010.91054991 260.4692042 C1007.49389322 260.47023518 1004.07723653 260.47126939 1000.66057983 260.47230444 C936.83964821 260.49163392 873.01871661 260.50885064 809.19778324 260.52128399 C807.82652298 260.52155162 806.45526271 260.52181929 805.08400245 260.52208699 C790.0243918 260.52502505 774.96478114 260.52791685 759.90517049 260.5307916 C759.22867837 260.53092076 758.55218626 260.53104992 757.85519439 260.53118299 C751.70998237 260.53235616 745.56477035 260.53352918 739.41955833 260.53469618 C676.36008821 260.54667263 613.3006205 260.56054752 550.24115349 260.58432758 C548.29535969 260.58505989 548.29535969 260.58505989 546.31025692 260.585807 C519.11048371 260.59606623 491.91071079 260.60694468 464.71093815 260.61863422 C451.97287314 260.62410594 439.23480808 260.62943314 426.49674297 260.63467586 C424.61556243 260.63545375 424.61556243 260.63545375 422.69637824 260.63624735 C382.31825784 260.65287041 341.94014324 260.659555 301.56201966 260.66085069 C260.88128676 260.66218438 220.20056758 260.67261446 179.51984093 260.69579619 C173.89327887 260.69899886 168.26671676 260.70209267 162.64015461 260.70511997 C161.53723375 260.70571703 160.43431289 260.70631409 159.29797018 260.70692924 C141.86244074 260.71608919 124.42692695 260.71520448 106.99139647 260.71007929 C89.82983236 260.70523995 72.66829924 260.71110419 55.50674267 260.72819935 C45.45714696 260.73788935 35.40763078 260.73949533 25.35803558 260.72883712 C18.66632155 260.7225657 11.97467137 260.727325 5.28296796 260.74069074 C1.50078559 260.74794589 -2.28123816 260.75087215 -6.06341572 260.74005908 C-101.49244951 260.48788105 -187.77776126 296.44344789 -257.76315426 365.13255108 C-262.91680088 370.29160488 -267.82337697 375.5181384 -272.32565426 381.26536358 C-274.02043165 383.42502782 -275.7409207 385.53038348 -277.51315426 387.62473858 C-294.41003833 407.71477521 -308.33595976 430.38225376 -319.59420895 454.07932842 C-320.25145191 455.45430686 -320.91889554 456.82445323 -321.59616207 458.18967998 C-341.11301632 497.57741513 -352.59600005 543.97635152 -352.77877926 587.88645733 C-352.78447933 588.98561977 -352.79017941 590.08478222 -352.79605221 591.21725261 C-352.80544596 593.53756061 -352.81201363 595.8578816 -352.81588864 598.17820537 C-352.82548458 601.6339458 -352.85651728 605.08906183 -352.88815426 608.54466045 C-352.98375692 628.60949212 -351.29447079 648.50526365 -347.32565426 668.19505108 C-347.11658444 669.2511961 -346.90751461 670.30734111 -346.69210934 671.39549053 C-341.17538741 698.29674252 -332.42533595 724.37727546 -320.57565426 749.13255108 C-320.24597653 749.82896709 -319.91629879 750.52538311 -319.57663082 751.24290264 C-299.74376259 792.94226317 -269.7617862 834.37221903 -233.19284176 863.07395733 C-230.37607533 865.28953331 -227.67070303 867.61200111 -224.95065426 869.94505108 C-174.66278515 911.85160867 -110.26769313 936.35534584 -45.57565426 943.13255108 C-44.69022946 943.22608867 -43.80480465 943.31962627 -42.89254879 943.41599834 C-34.44368305 944.2156101 -26.00074459 944.36268711 -17.52154659 944.52015484 C67.38715937 946.16807495 149.00643198 960.41085279 251.42434574 1005.13255108 C252.40999515 1005.60273662 253.39564457 1006.07292217 254.41116215 1006.55735576 C269.87938092 1013.99075714 284.73383336 1022.26935011 299.42434574 1031.13255108 C300.79550541 1031.95457012 300.79550541 1031.95457012 302.19436527 1032.79319561 C321.05992291 1044.13298066 338.97273488 1056.73056164 356.42434574 1070.13255108 C357.02440433 1070.59226299 357.62446293 1071.0519749 358.24270511 1071.52561748 C370.49513255 1080.9420823 382.19240803 1090.94580781 393.51028324 1101.46458233 C395.01526695 1102.84246955 396.52402143 1104.21744691 398.07742191 1105.54051006 C404.4328865 1110.95367915 410.29033624 1116.84735405 416.17898441 1122.75681865 C417.98296659 1124.5661604 419.79223239 1126.37009427 421.60208011 1128.1735667 C427.42321782 1133.9909977 433.11477955 1139.83799625 438.42434574 1146.13255108 C439.44565322 1147.30108283 440.46908729 1148.4677594 441.49465824 1149.63255108 C507.86206204 1225.52405937 554.56061644 1317.17182825 590.03985477 1588.50709331 C584.98392108 1664.00910844 565.3917587 1737.59213443 410.04934574 1978.63255108 C409.53310642 1979.15146923 409.0168671 1979.67038738 408.48498417 1980.20503032 C402.64451183 1986.06850076 396.72298064 1991.75737258 390.42434574 1997.13255108 C388.81666201 1998.58700625 387.21194859 2000.04476002 385.61184574 2001.50755108 C380.36235719 2006.23768383 374.94065968 2010.71804058 369.42434574 2015.13255108 C368.91452152 2015.54198955 368.4046973 2015.95142803 367.87942386 2016.37327373 C335.94443965 2041.96621242 301.65301005 2064.11057114 265.42434574 2083.13255108 C264.51491215 2083.61256572 263.60547855 2084.09258037 262.66848636 2084.58714092 C189.70695597 2122.84216306 107.66015244 2143.9816994 -39.31645428 2150.40865946 C-45.3606297 2150.4061556 -51.40479069 2150.41525046 -57.44896054 2150.42269695 C-69.2371036 2150.43534144 -81.02522858 2150.43725664 -92.81337586 2150.43489669 C-102.39905672 2150.43305194 -111.98473093 2150.43484815 -121.57041096 2150.43912113 C-122.95572415 2150.43972356 -124.34103734 2150.44032476 -125.72635053 2150.44092473 C-127.8146516 2150.44183212 -129.90295267 2150.44274081 -131.99125374 2150.44365708 C-151.35199513 2150.45206099 -170.71273406 2150.45643954 -190.07347702 2150.45225036 C-191.16366244 2150.4520158 -191.16366244 2150.4520158 -192.27587181 2150.4517765 C-195.95821804 2150.45097091 -199.64056425 2150.45012513 -203.32291046 2150.44926319 C-204.05403971 2150.44909211 -204.78516897 2150.44892102 -205.53845365 2150.44874475 C-207.01695995 2150.44839809 -208.49546624 2150.44804956 -209.97397253 2150.44769916 C-233.01284574 2150.4423343 -256.05168074 2150.45030462 -279.09054684 2150.46873272 C-305.06176139 2150.48948274 -331.0329523 2150.50017076 -357.0041756 2150.49615723 C-359.77628456 2150.49576195 -362.54839354 2150.4954004 -365.32050251 2150.49505985 C-366.00291456 2150.49496912 -366.6853266 2150.49487839 -367.3884178 2150.49478491 C-377.64794603 2150.49362348 -387.90745017 2150.50023156 -398.16697239 2150.51087177 C-409.83403858 2150.52296048 -421.50106134 2150.52416303 -433.16813007 2150.5120816 C-439.11111161 2150.50621253 -445.05399014 2150.50503914 -450.99696469 2150.517084 C-456.44996892 2150.52800717 -461.90278489 2150.52476379 -467.35578056 2150.51082232 C-469.31474802 2150.50819325 -471.27373056 2150.5104847 -473.23268315 2150.51855818 C-511.15761631 2150.66385708 -545.64444962 2140.90215552 -573.57565426 2114.13255108 C-574.42127926 2113.32817608 -575.26690426 2112.52380108 -576.13815426 2111.69505108 C-576.94252926 2110.84942608 -577.74690426 2110.00380108 -578.57565426 2109.13255108 C-579.55598629 2108.12708233 -579.55598629 2108.12708233 -580.55612301 2107.10130108 C-604.85590816 2081.33767345 -614.642979 2046.76799764 -613.71188473 2011.97630108 C-612.31875077 1982.8952538 -600.16360093 1956.16858166 -581.57565426 1934.13255108 C-580.80801754 1933.18122295 -580.80801754 1933.18122295 -580.02487301 1932.21067608 C-560.28943016 1908.16641686 -527.89130815 1894.27044383 -497.60317063 1890.60724247 C-488.9368545 1889.76624033 -480.20783176 1889.98928153 -471.51039242 1889.99452007 C-469.45177962 1889.99209989 -467.39316731 1889.98923697 -465.33455568 1889.98597074 C-459.68954446 1889.97823836 -454.04454543 1889.97659942 -448.39952957 1889.97591961 C-442.30570212 1889.97407599 -436.21188173 1889.96646658 -430.11805844 1889.95944011 C-420.2429717 1889.94867064 -410.367886 1889.94049089 -400.4927954 1889.93456 C-383.80070731 1889.92450191 -367.10863948 1889.90523384 -350.41656359 1889.88301761 C-343.98389565 1889.87448814 -337.55122735 1889.86622109 -331.11855911 1889.85791385 C-330.04653345 1889.85652634 -330.04653345 1889.85652634 -328.9528507 1889.8551108 C-311.94748195 1889.83312918 -294.94211093 1889.81333675 -277.93673825 1889.79466045 C-277.19294809 1889.79384077 -276.44915793 1889.79302109 -275.68282868 1889.79217657 C-258.35261127 1889.773117 -241.02239397 1889.75615137 -223.69217037 1889.74381817 C-222.94813762 1889.7432885 -222.20410486 1889.74275883 -221.43752565 1889.74221311 C-215.44091914 1889.73796184 -209.44431258 1889.73378541 -203.447706 1889.72962831 C-178.65403567 1889.71238152 -153.86039303 1889.68510357 -129.06674649 1889.64646794 C-125.55552333 1889.64100729 -122.0443 1889.63567412 -118.53307652 1889.63042629 C-117.49669461 1889.62887472 -117.49669461 1889.62887472 -116.4393757 1889.6272918 C-105.37877574 1889.61105122 -94.31819541 1889.60544318 -83.25758466 1889.60412863 C-72.10997688 1889.60261434 -60.96241401 1889.59009047 -49.81482704 1889.56737222 C-43.79001897 1889.55543068 -37.76530653 1889.54813273 -31.74048733 1889.55408466 C-2.43228793 1889.57924585 26.3976291 1889.29364431 55.23684574 1883.38255108 C56.51470951 1883.12723613 57.79257328 1882.87192119 59.10916019 1882.60886944 C71.10056049 1880.13405011 82.78114209 1876.90208591 94.42434574 1873.13255108 C95.67586429 1872.73713115 95.67586429 1872.73713115 96.95266605 1872.33372295 C126.61618609 1862.8915654 154.75092142 1848.67331832 180.42434574 1831.13255108 C181.02649906 1830.72327373 181.62865238 1830.31399639 182.24905277 1829.8923167 C195.5227987 1820.81162684 207.96509815 1810.64684721 219.70559574 1799.66380108 C222.19362562 1797.34735946 224.73516703 1795.11371957 227.29934574 1792.88255108 C237.62515049 1783.60429173 246.86638748 1773.03882569 255.42434574 1762.13255108 C256.17586918 1761.19926983 256.92739261 1760.26598858 257.70168949 1759.30442608 C298.60211868 1707.59885919 323.16894243 1644.6535966 329.42434574 1579.13255108 C329.56573978 1577.66676616 329.56573978 1577.66676616 329.70999027 1576.17136944 C330.50702337 1567.01261784 330.66733661 1557.88235244 330.67434574 1548.69505108 C330.67502048 1547.89052501 330.67569523 1547.08599895 330.67639042 1546.25709331 C330.6094572 1495.46729343 319.21191026 1445.97002522 297.42434574 1400.13255108 C297.04052738 1399.31576885 296.65670902 1398.49898662 296.2612598 1397.65745342 C282.23845585 1367.98305188 263.36264463 1340.80366368 240.95559574 1316.85130108 C238.63915413 1314.36327119 236.40551423 1311.82172979 234.17434574 1309.25755108 C224.90239326 1298.93876525 214.34566749 1289.65859599 203.42434574 1281.13255108 C202.80333988 1280.64431865 202.18233402 1280.15608623 201.5425098 1279.65305889 C185.91665061 1267.39529143 169.74627778 1256.83707304 152.42434574 1247.13255108 C151.73679203 1246.74212627 151.04923832 1246.35170147 150.34084965 1245.94944561 C103.48472682 1219.45855448 48.95161899 1206.74146671 -4.57290768 1205.74494732 C-80.92873227 1204.25976122 -155.47166324 1193.03529601 -265.57565426 1149.13255108 C-267.07298092 1148.44660869 -267.07298092 1148.44660869 -268.6005566 1147.74680889 C-282.51820111 1141.35936193 -295.87936583 1134.23228074 -309.12252926 1126.5485667 C-311.19104909 1125.35455645 -313.26774085 1124.18049898 -315.35690426 1123.02317608 C-332.05314005 1113.72098757 -347.97995621 1103.17129075 -363.32516598 1091.79319561 C-365.67990355 1090.0556251 -368.04987019 1088.34056485 -370.42331051 1086.62864483 C-379.66305156 1079.93830455 -388.4892027 1072.98208332 -397.05270504 1065.44944561 C-399.32145608 1063.48765608 -401.66830558 1061.62723218 -404.01315426 1059.75755108 C-410.56308842 1054.4405457 -416.63071844 1048.6225079 -422.76071285 1042.83421123 C-424.93360603 1040.7969412 -427.13398596 1038.79186681 -429.34079098 1036.79148662 C-437.51878009 1029.37589801 -445.47230388 1021.75509505 -452.64206051 1013.34739483 C-454.67432469 1011.01952858 -456.7689293 1008.76156415 -458.87838864 1006.50388897 C-464.71913752 1000.24866458 -470.21923471 993.81057088 -475.57565426 987.13255108 C-476.55842076 985.93981766 -477.54290357 984.74849707 -478.52877926 983.55833233 C-541.83343598 906.92433414 -584.86483265 813.25446604 -612.57565426 645.13255108 C-612.66322994 643.8657249 -612.75080563 642.59889873 -612.84103512 641.29368389 C-613.66086618 628.6586833 -613.77632884 616.04100374 -613.76315426 603.38255108 C-613.76255001 602.30440136 -613.76194576 601.22625164 -613.76132321 600.11543071 C-613.73492882 582.70430678 -613.30931044 565.46911284 -611.57565426 548.13255108 C-611.51013363 547.47331646 -611.444613 546.81408184 -611.3771069 546.13487041 C-603.38953948 466.42779919 -580.68064276 390.2879527 -470.01120114 211.81077373 C-468.49897202 210.04290589 -466.99761704 208.26619791 -465.49752926 206.48801983 C-460.63469889 200.74131556 -455.75551421 195.14321979 -450.34518551 189.89817608 C-448.6120384 188.1688549 -447.03219501 186.3755744 -445.45065426 184.50755108 C-438.2077081 176.09907335 -430.15597076 168.12839581 -421.68502926 160.96067608 C-419.38937389 158.97110809 -417.17279222 156.91038236 -414.95358395 154.8364085 C-408.69687653 148.99265823 -402.25609151 143.49090966 -395.57565426 138.13255108 C-394.38292084 137.14978458 -393.19160026 136.16530176 -392.00143551 135.17942608 C-362.42471319 110.748926 -330.12976965 89.55174341 -296.26364254 71.56467998 C-293.68125135 70.18881198 -291.11019019 68.79367695 -288.54049801 67.39426983 C-264.78969606 54.56865136 -239.96958623 44.21839071 -214.57565426 35.13255108 C-213.39487301 34.70877178 -212.21409176 34.28499248 -210.99752926 33.84837139 C-159.25914502 15.47729118 -104.4095279 4.25124901 -49.57565426 1.13255108 C-48.92281394 1.09276373 -48.26997362 1.05297639 -47.59735026 1.01198338 C-31.73342395 0.05985327 -15.88712435 -0.01272335 0 0 Z " fill="#48A0E8" transform="translate(1410.5756542608142,972.8674489241093)"/>
<path d="M0 0 C0.52335937 0.41121094 1.04671875 0.82242187 1.5859375 1.24609375 C9.43411436 7.45462803 15.96765097 13.95686796 22 22 C22.65226562 22.8146875 23.30453125 23.629375 23.9765625 24.46875 C35.93404081 39.90390129 43.04783284 57.5883429 47.25 76.5 C47.4135498 77.22251953 47.57709961 77.94503906 47.74560547 78.68945312 C50.86609572 93.80901103 50.14334678 109.61182135 50.12863445 124.96093082 C50.12998244 127.39346359 50.13176708 129.82599615 50.13394669 132.25852832 C50.13768132 137.5470786 50.13833563 142.83561576 50.13624074 148.12416596 C50.13312185 156.04142992 50.13578758 163.95868491 50.13953945 171.87594822 C50.14576417 185.37232801 50.1472469 198.86870459 50.14612198 212.3650856 C50.1449967 226.03812831 50.1460345 239.71116829 50.14969444 253.38421059 C50.15003892 254.6807143 50.15003892 254.6807143 50.15039036 256.00341 C50.15133202 259.52386069 50.15228771 263.04431139 50.15326155 266.56476207 C50.16340068 303.27185535 50.16646734 339.97894709 50.16705366 376.6860416 C50.16711841 380.63593634 50.16718635 384.58583109 50.16725707 388.53572583 C50.16727408 389.51592177 50.16729108 390.4961177 50.1673086 391.50601654 C50.16771721 413.23535505 50.16990761 434.96469327 50.17241292 456.69403162 C50.17344128 465.64381321 50.17443132 474.5935948 50.17542917 483.54337639 C50.17553975 484.53227539 50.17565034 485.52117439 50.17576428 486.54004003 C50.18208763 543.20240365 50.18621348 599.86476709 50.18575573 656.52713108 C50.18573995 658.64724878 50.18572422 660.76736648 50.18570852 662.88748418 C50.18563514 672.45946297 50.18554697 682.03144176 50.18545464 691.60342056 C50.18541351 695.87173713 50.18537337 700.14005371 50.18533332 704.40837029 C50.18531293 706.54473851 50.18529191 708.68110673 50.18527026 710.81747495 C50.18459004 778.36993671 50.19190732 845.92239323 50.20581055 913.47485352 C50.20931163 930.49499033 50.21278111 947.51512716 50.21607494 964.53526402 C50.21627782 965.58329056 50.21648069 966.6313171 50.21668971 967.71110202 C50.22290567 1000.01744584 50.22667046 1032.32378923 50.22793293 1064.63013363 C50.22797288 1065.64457485 50.22801283 1066.65901608 50.22805399 1067.70419794 C50.22890731 1089.97472581 50.22916845 1112.24525365 50.22888362 1134.51578154 C50.22878713 1142.48477449 50.22873509 1150.45376744 50.22870489 1158.42276039 C50.22869697 1160.40520636 50.22868677 1162.38765233 50.22867426 1164.37009829 C50.22849803 1195.94306837 50.23419247 1227.51603396 50.24282808 1259.08900276 C50.25148268 1290.89304986 50.25366526 1322.69709075 50.24706676 1354.50113854 C50.24615451 1358.89941967 50.24531122 1363.29770082 50.24450874 1367.69598198 C50.24434866 1368.55813268 50.24418857 1369.42028338 50.24402363 1370.30855986 C50.241674 1383.93963407 50.24602039 1397.5706975 50.25317993 1411.20176968 C50.2600853 1424.61729324 50.25980984 1438.03280095 50.25198779 1451.44832418 C50.24761908 1459.30487484 50.24864758 1467.1613787 50.25785458 1475.01792544 C50.26408861 1480.86516095 50.25978074 1486.71235904 50.25152128 1492.55959302 C50.24980956 1494.89965527 50.25139669 1497.23972306 50.25682249 1499.57977965 C50.28095463 1510.74121435 50.10016646 1521.81544397 49.12116319 1532.93933243 C49.00725619 1534.24701031 49.00725619 1534.24701031 48.89104803 1535.58110592 C45.64025164 1568.5431738 28.0491075 1599.18826146 3.046875 1620.51953125 C-22.89256042 1641.66272533 -57.04353207 1652.78534913 -90.47460938 1649.77734375 C-120.72997237 1646.55434184 -149.60164466 1635.21962902 -171 1613 C-172.2065625 1611.824375 -172.2065625 1611.824375 -173.4375 1610.625 C-197.02151997 1586.46576003 -210.20650903 1554.51272358 -210.1276505 1520.66960341 C-210.12930128 1519.66036144 -210.13095206 1518.65111948 -210.13265286 1517.61129442 C-210.13697078 1514.22546059 -210.13417874 1510.83967041 -210.13142776 1507.45383549 C-210.13307773 1504.99297661 -210.13516415 1502.532118 -210.13764787 1500.07125983 C-210.14205364 1494.7019431 -210.14334794 1489.3326389 -210.14191952 1483.96332151 C-210.13979684 1475.92511184 -210.14341393 1467.8869117 -210.1481343 1459.8487035 C-210.15600558 1446.14873749 -210.15909624 1432.44877409 -210.15958023 1418.748806 C-210.16008259 1404.86361374 -210.16272917 1390.97842441 -210.16798782 1377.09323311 C-210.16831796 1376.21646872 -210.16864809 1375.33970433 -210.16898823 1374.43637132 C-210.17033822 1370.86547177 -210.17170089 1367.29457224 -210.17308033 1363.72367271 C-210.18938387 1321.44435062 -210.19576903 1279.16502909 -210.2005282 1236.88570439 C-210.20291127 1215.83401753 -210.20661471 1194.78233099 -210.2105653 1173.73064437 C-210.22322973 1106.20735178 -210.23401373 1038.68405921 -210.23740576 971.16076546 C-210.237568 967.93344434 -210.23773356 964.70612323 -210.23790014 961.47880211 C-210.23823394 955.00633824 -210.23856442 948.53387436 -210.2388947 942.06141049 C-210.2392816 934.48369711 -210.23967121 926.90598373 -210.24006577 919.32827034 C-210.24017818 917.15946587 -210.2402896 914.99066139 -210.24040002 912.82185691 C-210.24394965 843.16361239 -210.25902888 773.50537818 -210.28233776 703.84713759 C-210.29907957 653.7942175 -210.31455449 603.74129935 -210.31907272 553.68837643 C-210.31916621 552.65899967 -210.3192597 551.62962292 -210.31935601 550.56905293 C-210.32137507 527.97151999 -210.32253111 505.37398707 -210.3228846 482.77645404 C-210.32302077 474.690546 -210.32322977 466.60463796 -210.32347785 458.51872993 C-210.32353941 456.50715221 -210.32359773 454.49557449 -210.3236528 452.48399677 C-210.32457256 420.43259271 -210.33454001 388.38119941 -210.34911029 356.32979889 C-210.36372766 324.04563317 -210.36876724 291.76148066 -210.36069075 259.47731222 C-210.35957539 255.01466698 -210.35856472 250.55202173 -210.35761642 246.08937645 C-210.35733147 244.77719439 -210.35733147 244.77719439 -210.35704076 243.4385036 C-210.3543087 229.59539255 -210.36164399 215.75230595 -210.37318979 201.90920022 C-210.38433718 188.29208968 -210.38475523 174.67501365 -210.37381961 161.05790256 C-210.36773139 153.07836385 -210.36979596 145.0989294 -210.38407158 137.11940056 C-210.39376042 131.18826652 -210.38771705 125.25721496 -210.37566125 119.32608303 C-210.37323164 116.94677378 -210.37579569 114.56745263 -210.38405773 112.18815648 C-210.50967836 73.45648198 -200.00832014 41.16317554 -174 12 C-173.35546875 11.27039062 -172.7109375 10.54078125 -172.046875 9.7890625 C-153.63690474 -9.821558 -127.03422901 -21.32394916 -101 -26 C-99.98164063 -26.18433594 -98.96328125 -26.36867188 -97.9140625 -26.55859375 C-62.75444579 -30.52370023 -27.84942074 -22.15294831 0 0 Z " fill="#48A0E8" transform="translate(2792,1473)"/>
</svg>
